<svg id="Group_1" data-name="Group 1" xmlns="http://www.w3.org/2000/svg" viewBox="0 0 125.7 27.189">
  <path id="Path_1" data-name="Path 1" d="M0,23.542l3.353-5.28a13.645,13.645,0,0,0,7.88,2.5c2.965,0,4.28-.832,4.514-2.061.762-4.014-14.187-1.085-12.4-10.487C4.2,3.689,8.593,0,16.115,0a16.633,16.633,0,0,1,8.766,2.206L21.666,7.522a12.935,12.935,0,0,0-6.645-1.953c-3,0-4.279,1.012-4.519,2.278-.735,3.87,14.171.976,12.4,10.307-.838,4.412-5.241,8.173-12.762,8.173C5.98,26.326,2.071,25.205,0,23.542Z"/>
  <path id="Path_2" data-name="Path 2" d="M487.514,3.27l-4.807,25.314h-5.894L468.2,15.095l-2.561,13.489h-7.016L463.43,3.27h5.894l8.613,13.489L480.5,3.27Z" transform="translate(-387.627 -2.764)"/>
  <path id="Path_3" data-name="Path 3" d="M666.341,8.948h-7.775l1.078-5.678h22.674L681.24,8.948H673.5l-3.729,19.636h-7.16Z" transform="translate(-556.618 -2.764)"/>
  <path id="Path_4" data-name="Path 4" d="M176.26,22.906H165.986L169.715,3.27h-7.16l-4.807,25.314h11.88C172.03,26.327,174.285,24.439,176.26,22.906Z" transform="translate(-133.328 -2.764)"/>
  <path id="Path_5" data-name="Path 5" d="M327.034,14.343l-3.466-8.392c-1.031-2.441-1.769-2.681-2.542-2.681l-.048,0-.047,0c-.773,0-1.6.239-3.56,2.681l-6.653,8.392a20.2,20.2,0,0,0-3.167,5.189l.343-.226a25.9,25.9,0,0,1,2.382-1.47l.114-.064.123-.066h0a31.221,31.221,0,0,1,5.564-2.293q.242-.088.492-.157c.065-.018.132-.032.2-.047l.025-.008h0a6.223,6.223,0,0,1,7.248,8.253h0s-.91,2.855-5.094,6.5C324,29.515,331.079,23.755,327.034,14.343Z" transform="translate(-259.941 -2.764)"/>
</svg>
